<?xml version="1.0" encoding="UTF-8" standalone="no"?>
<!DOCTYPE svg PUBLIC "-//W3C//DTD SVG 1.1//EN"
 "http://www.w3.org/Graphics/SVG/1.1/DTD/svg11.dtd">
<!-- Generated by graphviz version 12.2.1 (20241206.2353)
 -->
<!-- Title: MindMap Pages: 1 -->
<svg width="2849pt" height="2614pt"
 viewBox="0.00 0.00 2848.70 2613.90" xmlns="http://www.w3.org/2000/svg" xmlns:xlink="http://www.w3.org/1999/xlink">
<g id="graph0" class="graph" transform="scale(1 1) rotate(0) translate(4 2609.9)">
<title>MindMap</title>
<polygon fill="#f7f9fa" stroke="none" points="-4,4 -4,-2609.9 2844.7,-2609.9 2844.7,4 -4,4"/>
<!-- 1692566334560 -->
<g id="node1" class="node">
<title>1692566334560</title>
<polygon fill="#2c3e50" stroke="black" stroke-width="0" points="108,-1430.55 0,-1430.55 0,-1387.35 108,-1387.35 108,-1430.55"/>
<text text-anchor="middle" x="54" y="-1405.03" font-family="Microsoft YaHei" font-size="14.00" fill="white">知识图谱</text>
</g>
<!-- 1692598599600 -->
<g id="node2" class="node">
<title>1692598599600</title>
<polygon fill="#2980b9" stroke="black" stroke-width="0" points="658.05,-1430.55 252,-1430.55 252,-1387.35 658.05,-1387.35 658.05,-1430.55"/>
<text text-anchor="middle" x="455.03" y="-1405.03" font-family="Microsoft YaHei" font-size="14.00" fill="white">[AKShare](https://github.com/akfamily/akshare) 指数数据</text>
</g>
<!-- 1692566334560&#45;&gt;1692598599600 -->
<g id="edge1" class="edge">
<title>1692566334560&#45;&gt;1692598599600</title>
<path fill="none" stroke="#95a5a6" stroke-width="1.5" d="M107.67,-1408.95C107.67,-1408.95 242.75,-1408.95 242.75,-1408.95"/>
<polygon fill="#95a5a6" stroke="#95a5a6" stroke-width="1.5" points="242.75,-1411.4 249.75,-1408.95 242.75,-1406.5 242.75,-1411.4"/>
</g>
<!-- 1692598599648 -->
<g id="node3" class="node">
<title>1692598599648</title>
<polygon fill="#2980b9" stroke="black" stroke-width="0" points="959.1,-2427.55 862.05,-2427.55 862.05,-2384.35 959.1,-2384.35 959.1,-2427.55"/>
<text text-anchor="middle" x="910.58" y="-2402.8" font-family="Microsoft YaHei" font-size="12.00" fill="white">A股股票指数</text>
</g>
<!-- 1692598599600&#45;&gt;1692598599648 -->
<g id="edge2" class="edge">
<title>1692598599600&#45;&gt;1692598599648</title>
<path fill="none" stroke="#95a5a6" stroke-width="1.5" d="M353.7,-1430.24C353.7,-1574.73 353.7,-2405.95 353.7,-2405.95 353.7,-2405.95 852.86,-2405.95 852.86,-2405.95"/>
<polygon fill="#95a5a6" stroke="#95a5a6" stroke-width="1.5" points="852.86,-2408.4 859.86,-2405.95 852.86,-2403.5 852.86,-2408.4"/>
</g>
<!-- 1692603187328 -->
<g id="node9" class="node">
<title>1692603187328</title>
<polygon fill="#2980b9" stroke="black" stroke-width="0" points="972.98,-2066.55 848.18,-2066.55 848.18,-2023.35 972.98,-2023.35 972.98,-2066.55"/>
<text text-anchor="middle" x="910.58" y="-2041.8" font-family="Microsoft YaHei" font-size="12.00" fill="white">中国股票指数成份</text>
</g>
<!-- 1692598599600&#45;&gt;1692603187328 -->
<g id="edge8" class="edge">
<title>1692598599600&#45;&gt;1692603187328</title>
<path fill="none" stroke="#95a5a6" stroke-width="1.5" d="M454.7,-1430.48C454.7,-1541.57 454.7,-2044.95 454.7,-2044.95 454.7,-2044.95 839.35,-2044.95 839.35,-2044.95"/>
<polygon fill="#95a5a6" stroke="#95a5a6" stroke-width="1.5" points="839.35,-2047.4 846.35,-2044.95 839.35,-2042.5 839.35,-2047.4"/>
</g>
<!-- 1692603187520 -->
<g id="node13" class="node">
<title>1692603187520</title>
<polygon fill="#2980b9" stroke="black" stroke-width="0" points="953.78,-1578.55 867.38,-1578.55 867.38,-1535.35 953.78,-1535.35 953.78,-1578.55"/>
<text text-anchor="middle" x="910.58" y="-1553.8" font-family="Microsoft YaHei" font-size="12.00" fill="white">国证指数</text>
</g>
<!-- 1692598599600&#45;&gt;1692603187520 -->
<g id="edge12" class="edge">
<title>1692598599600&#45;&gt;1692603187520</title>
<path fill="none" stroke="#95a5a6" stroke-width="1.5" d="M556.7,-1430.47C556.7,-1471.52 556.7,-1556.95 556.7,-1556.95 556.7,-1556.95 858.27,-1556.95 858.27,-1556.95"/>
<polygon fill="#95a5a6" stroke="#95a5a6" stroke-width="1.5" points="858.27,-1559.4 865.27,-1556.95 858.27,-1554.5 858.27,-1559.4"/>
</g>
<!-- 1692603187808 -->
<g id="node19" class="node">
<title>1692603187808</title>
<polygon fill="#27ae60" stroke="black" stroke-width="0" points="1019.1,-1440.9 802.05,-1440.9 802.05,-1377 1019.1,-1377 1019.1,-1440.9"/>
<text text-anchor="middle" x="910.58" y="-1422.3" font-family="Microsoft YaHei" font-size="12.00" fill="white">中证指数</text>
<text text-anchor="middle" x="910.58" y="-1405.8" font-family="Microsoft YaHei" font-size="12.00" fill="white">接口: stock_zh_index_hist_csindex</text>
<text text-anchor="middle" x="910.58" y="-1389.3" font-family="Microsoft YaHei" font-size="12.00" fill="white">描述: 中证指数日频率的数据</text>
</g>
<!-- 1692598599600&#45;&gt;1692603187808 -->
<g id="edge18" class="edge">
<title>1692598599600&#45;&gt;1692603187808</title>
<path fill="none" stroke="#95a5a6" stroke-width="1.5" d="M657.82,-1408.95C657.82,-1408.95 792.97,-1408.95 792.97,-1408.95"/>
<polygon fill="#95a5a6" stroke="#95a5a6" stroke-width="1.5" points="792.97,-1411.4 799.97,-1408.95 792.97,-1406.5 792.97,-1411.4"/>
</g>
<!-- 1692603187856 -->
<g id="node20" class="node">
<title>1692603187856</title>
<polygon fill="#2980b9" stroke="black" stroke-width="0" points="953.78,-1308.55 867.38,-1308.55 867.38,-1265.35 953.78,-1265.35 953.78,-1308.55"/>
<text text-anchor="middle" x="910.58" y="-1283.8" font-family="Microsoft YaHei" font-size="12.00" fill="white">指数估值</text>
</g>
<!-- 1692598599600&#45;&gt;1692603187856 -->
<g id="edge19" class="edge">
<title>1692598599600&#45;&gt;1692603187856</title>
<path fill="none" stroke="#95a5a6" stroke-width="1.5" d="M556.7,-1387.42C556.7,-1352.4 556.7,-1286.95 556.7,-1286.95 556.7,-1286.95 858.27,-1286.95 858.27,-1286.95"/>
<polygon fill="#95a5a6" stroke="#95a5a6" stroke-width="1.5" points="858.27,-1289.4 865.27,-1286.95 858.27,-1284.5 858.27,-1289.4"/>
</g>
<!-- 1692603187952 -->
<g id="node22" class="node">
<title>1692603187952</title>
<polygon fill="#2980b9" stroke="black" stroke-width="0" points="960.98,-724.55 860.18,-724.55 860.18,-681.35 960.98,-681.35 960.98,-724.55"/>
<text text-anchor="middle" x="910.58" y="-699.8" font-family="Microsoft YaHei" font-size="12.00" fill="white">申万宏源研究</text>
</g>
<!-- 1692598599600&#45;&gt;1692603187952 -->
<g id="edge21" class="edge">
<title>1692598599600&#45;&gt;1692603187952</title>
<path fill="none" stroke="#95a5a6" stroke-width="1.5" d="M454.7,-1387.44C454.7,-1269.12 454.7,-702.95 454.7,-702.95 454.7,-702.95 851.21,-702.95 851.21,-702.95"/>
<polygon fill="#95a5a6" stroke="#95a5a6" stroke-width="1.5" points="851.21,-705.4 858.21,-702.95 851.21,-700.5 851.21,-705.4"/>
</g>
<!-- 1692603188432 -->
<g id="node32" class="node">
<title>1692603188432</title>
<polygon fill="#2980b9" stroke="black" stroke-width="0" points="960.98,-308.55 860.18,-308.55 860.18,-265.35 960.98,-265.35 960.98,-308.55"/>
<text text-anchor="middle" x="910.58" y="-283.8" font-family="Microsoft YaHei" font-size="12.00" fill="white">市场情绪指数</text>
</g>
<!-- 1692598599600&#45;&gt;1692603188432 -->
<g id="edge31" class="edge">
<title>1692598599600&#45;&gt;1692603188432</title>
<path fill="none" stroke="#95a5a6" stroke-width="1.5" d="M353.7,-1387.54C353.7,-1232.42 353.7,-286.95 353.7,-286.95 353.7,-286.95 851.4,-286.95 851.4,-286.95"/>
<polygon fill="#95a5a6" stroke="#95a5a6" stroke-width="1.5" points="851.4,-289.4 858.4,-286.95 851.4,-284.5 851.4,-289.4"/>
</g>
<!-- 1692598599456 -->
<g id="node4" class="node">
<title>1692598599456</title>
<polygon fill="#27ae60" stroke="black" stroke-width="0" points="1895.78,-2605.9 1657.73,-2605.9 1657.73,-2542 1895.78,-2542 1895.78,-2605.9"/>
<text text-anchor="middle" x="1776.75" y="-2587.3" font-family="Microsoft YaHei" font-size="12.00" fill="white">实时行情数据&#45;东财</text>
<text text-anchor="middle" x="1776.75" y="-2570.8" font-family="Microsoft YaHei" font-size="12.00" fill="white">接口: stock_zh_index_spot_em</text>
<text text-anchor="middle" x="1776.75" y="-2554.3" font-family="Microsoft YaHei" font-size="12.00" fill="white">描述: 东方财富网&#45;行情中心&#45;沪深京指数</text>
</g>
<!-- 1692598599648&#45;&gt;1692598599456 -->
<g id="edge3" class="edge">
<title>1692598599648&#45;&gt;1692598599456</title>
<path fill="none" stroke="#95a5a6" stroke-width="1.5" d="M959,-2416.75C1128.47,-2416.75 1684.7,-2416.75 1684.7,-2416.75 1684.7,-2416.75 1684.7,-2532.87 1684.7,-2532.87"/>
<polygon fill="#95a5a6" stroke="#95a5a6" stroke-width="1.5" points="1682.25,-2532.87 1684.7,-2539.87 1687.15,-2532.87 1682.25,-2532.87"/>
</g>
<!-- 1692598599552 -->
<g id="node5" class="node">
<title>1692598599552</title>
<polygon fill="#2980b9" stroke="black" stroke-width="0" points="1827.15,-2483.55 1726.35,-2483.55 1726.35,-2440.35 1827.15,-2440.35 1827.15,-2483.55"/>
<text text-anchor="middle" x="1776.75" y="-2458.8" font-family="Microsoft YaHei" font-size="12.00" fill="white">历史行情数据</text>
</g>
<!-- 1692598599648&#45;&gt;1692598599552 -->
<g id="edge4" class="edge">
<title>1692598599648&#45;&gt;1692598599552</title>
<path fill="none" stroke="#95a5a6" stroke-width="1.5" d="M910.7,-2427.44C910.7,-2443.23 910.7,-2461.95 910.7,-2461.95 910.7,-2461.95 1717.17,-2461.95 1717.17,-2461.95"/>
<polygon fill="#95a5a6" stroke="#95a5a6" stroke-width="1.5" points="1717.17,-2464.4 1724.17,-2461.95 1717.17,-2459.5 1717.17,-2464.4"/>
</g>
<!-- 1692603187280 -->
<g id="node8" class="node">
<title>1692603187280</title>
<polygon fill="#27ae60" stroke="black" stroke-width="0" points="1889.78,-2381.9 1663.73,-2381.9 1663.73,-2318 1889.78,-2318 1889.78,-2381.9"/>
<text text-anchor="middle" x="1776.75" y="-2363.3" font-family="Microsoft YaHei" font-size="12.00" fill="white">分时行情数据</text>
<text text-anchor="middle" x="1776.75" y="-2346.8" font-family="Microsoft YaHei" font-size="12.00" fill="white">接口: index_zh_a_hist_min_em</text>
<text text-anchor="middle" x="1776.75" y="-2330.3" font-family="Microsoft YaHei" font-size="12.00" fill="white">描述: 东方财富网&#45;指数数据&#45;分时行情</text>
</g>
<!-- 1692598599648&#45;&gt;1692603187280 -->
<g id="edge7" class="edge">
<title>1692598599648&#45;&gt;1692603187280</title>
<path fill="none" stroke="#95a5a6" stroke-width="1.5" d="M958.82,-2405.95C1131.09,-2405.95 1705.7,-2405.95 1705.7,-2405.95 1705.7,-2405.95 1705.7,-2391.15 1705.7,-2391.15"/>
<polygon fill="#95a5a6" stroke="#95a5a6" stroke-width="1.5" points="1708.15,-2391.15 1705.7,-2384.15 1703.25,-2391.15 1708.15,-2391.15"/>
</g>
<!-- 1692598599504 -->
<g id="node6" class="node">
<title>1692598599504</title>
<polygon fill="#27ae60" stroke="black" stroke-width="0" points="2840.7,-2554.9 2534.4,-2554.9 2534.4,-2491 2840.7,-2491 2840.7,-2554.9"/>
<text text-anchor="middle" x="2687.55" y="-2536.3" font-family="Microsoft YaHei" font-size="12.00" fill="white">历史行情数据&#45;东方财富</text>
<text text-anchor="middle" x="2687.55" y="-2519.8" font-family="Microsoft YaHei" font-size="12.00" fill="white">接口: stock_zh_index_daily_em</text>
<text text-anchor="middle" x="2687.55" y="-2503.3" font-family="Microsoft YaHei" font-size="12.00" fill="white">描述: 东方财富股票指数数据, 历史数据按日频率更新</text>
</g>
<!-- 1692598599552&#45;&gt;1692598599504 -->
<g id="edge5" class="edge">
<title>1692598599552&#45;&gt;1692598599504</title>
<path fill="none" stroke="#95a5a6" stroke-width="1.5" d="M1827.1,-2461.95C1998.5,-2461.95 2548.7,-2461.95 2548.7,-2461.95 2548.7,-2461.95 2548.7,-2481.75 2548.7,-2481.75"/>
<polygon fill="#95a5a6" stroke="#95a5a6" stroke-width="1.5" points="2546.25,-2481.75 2548.7,-2488.75 2551.15,-2481.75 2546.25,-2481.75"/>
</g>
<!-- 1692567496192 -->
<g id="node7" class="node">
<title>1692567496192</title>
<polygon fill="#27ae60" stroke="black" stroke-width="0" points="2812.58,-2432.9 2562.53,-2432.9 2562.53,-2369 2812.58,-2369 2812.58,-2432.9"/>
<text text-anchor="middle" x="2687.55" y="-2414.3" font-family="Microsoft YaHei" font-size="12.00" fill="white">历史行情数据&#45;通用</text>
<text text-anchor="middle" x="2687.55" y="-2397.8" font-family="Microsoft YaHei" font-size="12.00" fill="white">接口: index_zh_a_hist</text>
<text text-anchor="middle" x="2687.55" y="-2381.3" font-family="Microsoft YaHei" font-size="12.00" fill="white">描述: 东方财富网&#45;中国股票指数&#45;行情数据</text>
</g>
<!-- 1692598599552&#45;&gt;1692567496192 -->
<g id="edge6" class="edge">
<title>1692598599552&#45;&gt;1692567496192</title>
<path fill="none" stroke="#95a5a6" stroke-width="1.5" d="M1776.7,-2440.45C1776.7,-2420.92 1776.7,-2395.15 1776.7,-2395.15 1776.7,-2395.15 2553.54,-2395.15 2553.54,-2395.15"/>
<polygon fill="#95a5a6" stroke="#95a5a6" stroke-width="1.5" points="2553.54,-2397.6 2560.54,-2395.15 2553.54,-2392.7 2553.54,-2397.6"/>
</g>
<!-- 1692603187376 -->
<g id="node10" class="node">
<title>1692603187376</title>
<polygon fill="#27ae60" stroke="black" stroke-width="0" points="2390.4,-2259.9 1163.1,-2259.9 1163.1,-2196 2390.4,-2196 2390.4,-2259.9"/>
<text text-anchor="middle" x="1776.75" y="-2241.3" font-family="Microsoft YaHei" font-size="12.00" fill="white">最新成份</text>
<text text-anchor="middle" x="1776.75" y="-2224.8" font-family="Microsoft YaHei" font-size="12.00" fill="white">接口: index_stock_cons</text>
<text text-anchor="middle" x="1776.75" y="-2208.3" font-family="Microsoft YaHei" font-size="12.00" fill="white">描述: 指定指数的最新成份股票信息, 注意该接口返回的数据有部分是重复会导致数据缺失, 可以调用 **ak.index_stock_cons_sina()** 获取主流指数数据, 或调用**ak.index_stock_cons_csindex()**获取中证指数网提供的成分数据</text>
</g>
<!-- 1692603187328&#45;&gt;1692603187376 -->
<g id="edge9" class="edge">
<title>1692603187328&#45;&gt;1692603187376</title>
<path fill="none" stroke="#95a5a6" stroke-width="1.5" d="M963.7,-2066.3C963.7,-2114.57 963.7,-2227.95 963.7,-2227.95 963.7,-2227.95 1153.84,-2227.95 1153.84,-2227.95"/>
<polygon fill="#95a5a6" stroke="#95a5a6" stroke-width="1.5" points="1153.84,-2230.4 1160.84,-2227.95 1153.84,-2225.5 1153.84,-2230.4"/>
</g>
<!-- 1692603187424 -->
<g id="node11" class="node">
<title>1692603187424</title>
<polygon fill="#27ae60" stroke="black" stroke-width="0" points="1878.9,-2137.9 1674.6,-2137.9 1674.6,-2074 1878.9,-2074 1878.9,-2137.9"/>
<text text-anchor="middle" x="1776.75" y="-2119.3" font-family="Microsoft YaHei" font-size="12.00" fill="white">中证指数成份股</text>
<text text-anchor="middle" x="1776.75" y="-2102.8" font-family="Microsoft YaHei" font-size="12.00" fill="white">接口: index_stock_cons_csindex</text>
<text text-anchor="middle" x="1776.75" y="-2086.3" font-family="Microsoft YaHei" font-size="12.00" fill="white">描述: 中证指数网站&#45;成份股目录</text>
</g>
<!-- 1692603187328&#45;&gt;1692603187424 -->
<g id="edge10" class="edge">
<title>1692603187328&#45;&gt;1692603187424</title>
<path fill="none" stroke="#95a5a6" stroke-width="1.5" d="M968.7,-2066.28C968.7,-2083.88 968.7,-2105.95 968.7,-2105.95 968.7,-2105.95 1665.55,-2105.95 1665.55,-2105.95"/>
<polygon fill="#95a5a6" stroke="#95a5a6" stroke-width="1.5" points="1665.55,-2108.4 1672.55,-2105.95 1665.55,-2103.5 1665.55,-2108.4"/>
</g>
<!-- 1692603187472 -->
<g id="node12" class="node">
<title>1692603187472</title>
<polygon fill="#27ae60" stroke="black" stroke-width="0" points="1901.03,-2015.9 1652.48,-2015.9 1652.48,-1952 1901.03,-1952 1901.03,-2015.9"/>
<text text-anchor="middle" x="1776.75" y="-1997.3" font-family="Microsoft YaHei" font-size="12.00" fill="white">中证指数成份股权重</text>
<text text-anchor="middle" x="1776.75" y="-1980.8" font-family="Microsoft YaHei" font-size="12.00" fill="white">接口: index_stock_cons_weight_csindex</text>
<text text-anchor="middle" x="1776.75" y="-1964.3" font-family="Microsoft YaHei" font-size="12.00" fill="white">描述: 中证指数网站&#45;成份股权重</text>
</g>
<!-- 1692603187328&#45;&gt;1692603187472 -->
<g id="edge11" class="edge">
<title>1692603187328&#45;&gt;1692603187472</title>
<path fill="none" stroke="#95a5a6" stroke-width="1.5" d="M972.85,-2044.95C1153.29,-2044.95 1663.7,-2044.95 1663.7,-2044.95 1663.7,-2044.95 1663.7,-2025.15 1663.7,-2025.15"/>
<polygon fill="#95a5a6" stroke="#95a5a6" stroke-width="1.5" points="1666.15,-2025.15 1663.7,-2018.15 1661.25,-2025.15 1666.15,-2025.15"/>
</g>
<!-- 1692603187568 -->
<g id="node14" class="node">
<title>1692603187568</title>
<polygon fill="#27ae60" stroke="black" stroke-width="0" points="1941.15,-1893.9 1612.35,-1893.9 1612.35,-1830 1941.15,-1830 1941.15,-1893.9"/>
<text text-anchor="middle" x="1776.75" y="-1875.3" font-family="Microsoft YaHei" font-size="12.00" fill="white">全部指数</text>
<text text-anchor="middle" x="1776.75" y="-1858.8" font-family="Microsoft YaHei" font-size="12.00" fill="white">接口: index_all_cni</text>
<text text-anchor="middle" x="1776.75" y="-1842.3" font-family="Microsoft YaHei" font-size="12.00" fill="white">描述: 国证指数&#45;最近交易日的所有指数的代码和基本信息</text>
</g>
<!-- 1692603187520&#45;&gt;1692603187568 -->
<g id="edge13" class="edge">
<title>1692603187520&#45;&gt;1692603187568</title>
<path fill="none" stroke="#95a5a6" stroke-width="1.5" d="M953.73,-1569.91C1109.09,-1569.91 1630.7,-1569.91 1630.7,-1569.91 1630.7,-1569.91 1630.7,-1820.87 1630.7,-1820.87"/>
<polygon fill="#95a5a6" stroke="#95a5a6" stroke-width="1.5" points="1628.25,-1820.87 1630.7,-1827.87 1633.15,-1820.87 1628.25,-1820.87"/>
</g>
<!-- 1692603187616 -->
<g id="node15" class="node">
<title>1692603187616</title>
<polygon fill="#27ae60" stroke="black" stroke-width="0" points="1905.15,-1771.9 1648.35,-1771.9 1648.35,-1708 1905.15,-1708 1905.15,-1771.9"/>
<text text-anchor="middle" x="1776.75" y="-1753.3" font-family="Microsoft YaHei" font-size="12.00" fill="white">指数行情</text>
<text text-anchor="middle" x="1776.75" y="-1736.8" font-family="Microsoft YaHei" font-size="12.00" fill="white">接口: index_hist_cni</text>
<text text-anchor="middle" x="1776.75" y="-1720.3" font-family="Microsoft YaHei" font-size="12.00" fill="white">描述: 国证指数&#45;具体指数的日频率行情数据</text>
</g>
<!-- 1692603187520&#45;&gt;1692603187616 -->
<g id="edge14" class="edge">
<title>1692603187520&#45;&gt;1692603187616</title>
<path fill="none" stroke="#95a5a6" stroke-width="1.5" d="M953.58,-1561.27C1112.26,-1561.27 1655.7,-1561.27 1655.7,-1561.27 1655.7,-1561.27 1655.7,-1698.74 1655.7,-1698.74"/>
<polygon fill="#95a5a6" stroke="#95a5a6" stroke-width="1.5" points="1653.25,-1698.74 1655.7,-1705.74 1658.15,-1698.74 1653.25,-1698.74"/>
</g>
<!-- 1692603187664 -->
<g id="node16" class="node">
<title>1692603187664</title>
<polygon fill="#27ae60" stroke="black" stroke-width="0" points="1881.15,-1649.9 1672.35,-1649.9 1672.35,-1586 1881.15,-1586 1881.15,-1649.9"/>
<text text-anchor="middle" x="1776.75" y="-1631.3" font-family="Microsoft YaHei" font-size="12.00" fill="white">指数样本详情</text>
<text text-anchor="middle" x="1776.75" y="-1614.8" font-family="Microsoft YaHei" font-size="12.00" fill="white">接口: index_detail_cni</text>
<text text-anchor="middle" x="1776.75" y="-1598.3" font-family="Microsoft YaHei" font-size="12.00" fill="white">描述: 国证指数&#45;指数样本详情数据</text>
</g>
<!-- 1692603187520&#45;&gt;1692603187664 -->
<g id="edge15" class="edge">
<title>1692603187520&#45;&gt;1692603187664</title>
<path fill="none" stroke="#95a5a6" stroke-width="1.5" d="M953.63,-1552.63C1115.81,-1552.63 1680.7,-1552.63 1680.7,-1552.63 1680.7,-1552.63 1680.7,-1576.79 1680.7,-1576.79"/>
<polygon fill="#95a5a6" stroke="#95a5a6" stroke-width="1.5" points="1678.25,-1576.79 1680.7,-1583.79 1683.15,-1576.79 1678.25,-1576.79"/>
</g>
<!-- 1692603187712 -->
<g id="node17" class="node">
<title>1692603187712</title>
<polygon fill="#27ae60" stroke="black" stroke-width="0" points="1869.15,-1527.9 1684.35,-1527.9 1684.35,-1464 1869.15,-1464 1869.15,-1527.9"/>
<text text-anchor="middle" x="1776.75" y="-1509.3" font-family="Microsoft YaHei" font-size="12.00" fill="white">历史样本</text>
<text text-anchor="middle" x="1776.75" y="-1492.8" font-family="Microsoft YaHei" font-size="12.00" fill="white">接口: index_detail_hist_cni</text>
<text text-anchor="middle" x="1776.75" y="-1476.3" font-family="Microsoft YaHei" font-size="12.00" fill="white">描述: 国证指数&#45;历史样本数据</text>
</g>
<!-- 1692603187520&#45;&gt;1692603187712 -->
<g id="edge16" class="edge">
<title>1692603187520&#45;&gt;1692603187712</title>
<path fill="none" stroke="#95a5a6" stroke-width="1.5" d="M910.7,-1535.62C910.7,-1518.02 910.7,-1495.95 910.7,-1495.95 910.7,-1495.95 1675.21,-1495.95 1675.21,-1495.95"/>
<polygon fill="#95a5a6" stroke="#95a5a6" stroke-width="1.5" points="1675.21,-1498.4 1682.21,-1495.95 1675.21,-1493.5 1675.21,-1498.4"/>
</g>
<!-- 1692603187760 -->
<g id="node18" class="node">
<title>1692603187760</title>
<polygon fill="#27ae60" stroke="black" stroke-width="0" points="1883.78,-1405.9 1669.73,-1405.9 1669.73,-1342 1883.78,-1342 1883.78,-1405.9"/>
<text text-anchor="middle" x="1776.75" y="-1387.3" font-family="Microsoft YaHei" font-size="12.00" fill="white">历史调样</text>
<text text-anchor="middle" x="1776.75" y="-1370.8" font-family="Microsoft YaHei" font-size="12.00" fill="white">接口: index_detail_hist_adjust_cni</text>
<text text-anchor="middle" x="1776.75" y="-1354.3" font-family="Microsoft YaHei" font-size="12.00" fill="white">描述: 国证指数&#45;样本详情&#45;历史调样</text>
</g>
<!-- 1692603187520&#45;&gt;1692603187760 -->
<g id="edge17" class="edge">
<title>1692603187520&#45;&gt;1692603187760</title>
<path fill="none" stroke="#95a5a6" stroke-width="1.5" d="M953.68,-1543.99C1115.39,-1543.99 1676.7,-1543.99 1676.7,-1543.99 1676.7,-1543.99 1676.7,-1414.81 1676.7,-1414.81"/>
<polygon fill="#95a5a6" stroke="#95a5a6" stroke-width="1.5" points="1679.15,-1414.81 1676.7,-1407.81 1674.25,-1414.81 1679.15,-1414.81"/>
</g>
<!-- 1692603187904 -->
<g id="node21" class="node">
<title>1692603187904</title>
<polygon fill="#27ae60" stroke="black" stroke-width="0" points="1890.15,-1283.9 1663.35,-1283.9 1663.35,-1220 1890.15,-1220 1890.15,-1283.9"/>
<text text-anchor="middle" x="1776.75" y="-1265.3" font-family="Microsoft YaHei" font-size="12.00" fill="white">指数估值&#45;中证</text>
<text text-anchor="middle" x="1776.75" y="-1248.8" font-family="Microsoft YaHei" font-size="12.00" fill="white">接口: stock_zh_index_value_csindex</text>
<text text-anchor="middle" x="1776.75" y="-1232.3" font-family="Microsoft YaHei" font-size="12.00" fill="white">描述: 中证指数&#45;指数估值数据</text>
</g>
<!-- 1692603187856&#45;&gt;1692603187904 -->
<g id="edge20" class="edge">
<title>1692603187856&#45;&gt;1692603187904</title>
<path fill="none" stroke="#95a5a6" stroke-width="1.5" d="M953.53,-1274.63C953.53,-1274.63 1654.35,-1274.63 1654.35,-1274.63"/>
<polygon fill="#95a5a6" stroke="#95a5a6" stroke-width="1.5" points="1654.35,-1277.08 1661.35,-1274.63 1654.35,-1272.18 1654.35,-1277.08"/>
</g>
<!-- 1692603188000 -->
<g id="node23" class="node">
<title>1692603188000</title>
<polygon fill="#27ae60" stroke="black" stroke-width="0" points="1949.03,-1161.9 1604.48,-1161.9 1604.48,-1098 1949.03,-1098 1949.03,-1161.9"/>
<text text-anchor="middle" x="1776.75" y="-1143.3" font-family="Microsoft YaHei" font-size="12.00" fill="white">基金指数实时行情</text>
<text text-anchor="middle" x="1776.75" y="-1126.8" font-family="Microsoft YaHei" font-size="12.00" fill="white">接口: index_realtime_fund_sw</text>
<text text-anchor="middle" x="1776.75" y="-1110.3" font-family="Microsoft YaHei" font-size="12.00" fill="white">描述: 申万宏源研究&#45;申万指数&#45;指数发布&#45;基金指数&#45;实时行情</text>
</g>
<!-- 1692603187952&#45;&gt;1692603188000 -->
<g id="edge22" class="edge">
<title>1692603187952&#45;&gt;1692603188000</title>
<path fill="none" stroke="#95a5a6" stroke-width="1.5" d="M910.7,-724.42C910.7,-811.01 910.7,-1129.95 910.7,-1129.95 910.7,-1129.95 1595.34,-1129.95 1595.34,-1129.95"/>
<polygon fill="#95a5a6" stroke="#95a5a6" stroke-width="1.5" points="1595.34,-1132.4 1602.34,-1129.95 1595.34,-1127.5 1595.34,-1132.4"/>
</g>
<!-- 1692603188048 -->
<g id="node24" class="node">
<title>1692603188048</title>
<polygon fill="#27ae60" stroke="black" stroke-width="0" points="1949.03,-1039.9 1604.48,-1039.9 1604.48,-976 1949.03,-976 1949.03,-1039.9"/>
<text text-anchor="middle" x="1776.75" y="-1021.3" font-family="Microsoft YaHei" font-size="12.00" fill="white">基金指数历史行情</text>
<text text-anchor="middle" x="1776.75" y="-1004.8" font-family="Microsoft YaHei" font-size="12.00" fill="white">接口: index_hist_fund_sw</text>
<text text-anchor="middle" x="1776.75" y="-988.3" font-family="Microsoft YaHei" font-size="12.00" fill="white">描述: 申万宏源研究&#45;申万指数&#45;指数发布&#45;基金指数&#45;历史行情</text>
</g>
<!-- 1692603187952&#45;&gt;1692603188048 -->
<g id="edge23" class="edge">
<title>1692603187952&#45;&gt;1692603188048</title>
<path fill="none" stroke="#95a5a6" stroke-width="1.5" d="M955.7,-724.4C955.7,-793.82 955.7,-1007.95 955.7,-1007.95 955.7,-1007.95 1595.36,-1007.95 1595.36,-1007.95"/>
<polygon fill="#95a5a6" stroke="#95a5a6" stroke-width="1.5" points="1595.36,-1010.4 1602.36,-1007.95 1595.36,-1005.5 1595.36,-1010.4"/>
</g>
<!-- 1692603188096 -->
<g id="node25" class="node">
<title>1692603188096</title>
<polygon fill="#27ae60" stroke="black" stroke-width="0" points="1980.53,-917.9 1572.98,-917.9 1572.98,-854 1980.53,-854 1980.53,-917.9"/>
<text text-anchor="middle" x="1776.75" y="-899.3" font-family="Microsoft YaHei" font-size="12.00" fill="white">申万指数实时行情</text>
<text text-anchor="middle" x="1776.75" y="-882.8" font-family="Microsoft YaHei" font-size="12.00" fill="white">接口: index_realtime_sw</text>
<text text-anchor="middle" x="1776.75" y="-866.3" font-family="Microsoft YaHei" font-size="12.00" fill="white">描述: 申万宏源研究&#45;指数系列; 注意其中大类风格指数和金创指数的字段</text>
</g>
<!-- 1692603187952&#45;&gt;1692603188096 -->
<g id="edge24" class="edge">
<title>1692603187952&#45;&gt;1692603188096</title>
<path fill="none" stroke="#95a5a6" stroke-width="1.5" d="M957.7,-724.3C957.7,-772.57 957.7,-885.95 957.7,-885.95 957.7,-885.95 1563.97,-885.95 1563.97,-885.95"/>
<polygon fill="#95a5a6" stroke="#95a5a6" stroke-width="1.5" points="1563.97,-888.4 1570.97,-885.95 1563.97,-883.5 1563.97,-888.4"/>
</g>
<!-- 1692603188144 -->
<g id="node26" class="node">
<title>1692603188144</title>
<polygon fill="#27ae60" stroke="black" stroke-width="0" points="1934.4,-795.9 1619.1,-795.9 1619.1,-732 1934.4,-732 1934.4,-795.9"/>
<text text-anchor="middle" x="1776.75" y="-777.3" font-family="Microsoft YaHei" font-size="12.00" fill="white">申万指数历史行情</text>
<text text-anchor="middle" x="1776.75" y="-760.8" font-family="Microsoft YaHei" font-size="12.00" fill="white">接口: index_hist_sw</text>
<text text-anchor="middle" x="1776.75" y="-744.3" font-family="Microsoft YaHei" font-size="12.00" fill="white">描述: 申万宏源研究&#45;指数发布&#45;指数详情&#45;指数历史数据</text>
</g>
<!-- 1692603187952&#45;&gt;1692603188144 -->
<g id="edge25" class="edge">
<title>1692603187952&#45;&gt;1692603188144</title>
<path fill="none" stroke="#95a5a6" stroke-width="1.5" d="M958.7,-724.28C958.7,-741.88 958.7,-763.95 958.7,-763.95 958.7,-763.95 1610.24,-763.95 1610.24,-763.95"/>
<polygon fill="#95a5a6" stroke="#95a5a6" stroke-width="1.5" points="1610.24,-766.4 1617.24,-763.95 1610.24,-761.5 1610.24,-766.4"/>
</g>
<!-- 1692603188192 -->
<g id="node27" class="node">
<title>1692603188192</title>
<polygon fill="#27ae60" stroke="black" stroke-width="0" points="1934.4,-673.9 1619.1,-673.9 1619.1,-610 1934.4,-610 1934.4,-673.9"/>
<text text-anchor="middle" x="1776.75" y="-655.3" font-family="Microsoft YaHei" font-size="12.00" fill="white">申万指数分时行情</text>
<text text-anchor="middle" x="1776.75" y="-638.8" font-family="Microsoft YaHei" font-size="12.00" fill="white">接口: index_min_sw</text>
<text text-anchor="middle" x="1776.75" y="-622.3" font-family="Microsoft YaHei" font-size="12.00" fill="white">描述: 申万宏源研究&#45;指数发布&#45;指数详情&#45;指数分时数据</text>
</g>
<!-- 1692603187952&#45;&gt;1692603188192 -->
<g id="edge26" class="edge">
<title>1692603187952&#45;&gt;1692603188192</title>
<path fill="none" stroke="#95a5a6" stroke-width="1.5" d="M935.7,-681.62C935.7,-664.02 935.7,-641.95 935.7,-641.95 935.7,-641.95 1610.27,-641.95 1610.27,-641.95"/>
<polygon fill="#95a5a6" stroke="#95a5a6" stroke-width="1.5" points="1610.27,-644.4 1617.27,-641.95 1610.27,-639.5 1610.27,-644.4"/>
</g>
<!-- 1692603188240 -->
<g id="node28" class="node">
<title>1692603188240</title>
<polygon fill="#27ae60" stroke="black" stroke-width="0" points="1916.4,-551.9 1637.1,-551.9 1637.1,-488 1916.4,-488 1916.4,-551.9"/>
<text text-anchor="middle" x="1776.75" y="-533.3" font-family="Microsoft YaHei" font-size="12.00" fill="white">申万指数成分股</text>
<text text-anchor="middle" x="1776.75" y="-516.8" font-family="Microsoft YaHei" font-size="12.00" fill="white">接口: index_component_sw</text>
<text text-anchor="middle" x="1776.75" y="-500.3" font-family="Microsoft YaHei" font-size="12.00" fill="white">描述: 申万宏源研究&#45;指数发布&#45;指数详情&#45;成分股</text>
</g>
<!-- 1692603187952&#45;&gt;1692603188240 -->
<g id="edge27" class="edge">
<title>1692603187952&#45;&gt;1692603188240</title>
<path fill="none" stroke="#95a5a6" stroke-width="1.5" d="M910.7,-681.6C910.7,-633.33 910.7,-519.95 910.7,-519.95 910.7,-519.95 1627.85,-519.95 1627.85,-519.95"/>
<polygon fill="#95a5a6" stroke="#95a5a6" stroke-width="1.5" points="1627.85,-522.4 1634.85,-519.95 1627.85,-517.5 1627.85,-522.4"/>
</g>
<!-- 1692603188288 -->
<g id="node29" class="node">
<title>1692603188288</title>
<polygon fill="#27ae60" stroke="black" stroke-width="0" points="1889.78,-429.9 1663.73,-429.9 1663.73,-366 1889.78,-366 1889.78,-429.9"/>
<text text-anchor="middle" x="1776.75" y="-411.3" font-family="Microsoft YaHei" font-size="12.00" fill="white">申万指数分析&#45;日报表</text>
<text text-anchor="middle" x="1776.75" y="-394.8" font-family="Microsoft YaHei" font-size="12.00" fill="white">接口: index_analysis_daily_sw</text>
<text text-anchor="middle" x="1776.75" y="-378.3" font-family="Microsoft YaHei" font-size="12.00" fill="white">描述: 申万宏源研究&#45;指数分析&#45;日报表</text>
</g>
<!-- 1692603187952&#45;&gt;1692603188288 -->
<g id="edge28" class="edge">
<title>1692603187952&#45;&gt;1692603188288</title>
<path fill="none" stroke="#95a5a6" stroke-width="1.5" d="M885.7,-681.5C885.7,-612.08 885.7,-397.95 885.7,-397.95 885.7,-397.95 1654.63,-397.95 1654.63,-397.95"/>
<polygon fill="#95a5a6" stroke="#95a5a6" stroke-width="1.5" points="1654.63,-400.4 1661.63,-397.95 1654.63,-395.5 1654.63,-400.4"/>
</g>
<!-- 1692603188336 -->
<g id="node30" class="node">
<title>1692603188336</title>
<polygon fill="#27ae60" stroke="black" stroke-width="0" points="1889.78,-307.9 1663.73,-307.9 1663.73,-244 1889.78,-244 1889.78,-307.9"/>
<text text-anchor="middle" x="1776.75" y="-289.3" font-family="Microsoft YaHei" font-size="12.00" fill="white">申万指数分析&#45;周报表</text>
<text text-anchor="middle" x="1776.75" y="-272.8" font-family="Microsoft YaHei" font-size="12.00" fill="white">接口: index_analysis_weekly_sw</text>
<text text-anchor="middle" x="1776.75" y="-256.3" font-family="Microsoft YaHei" font-size="12.00" fill="white">描述: 申万宏源研究&#45;指数分析&#45;周报表</text>
</g>
<!-- 1692603187952&#45;&gt;1692603188336 -->
<g id="edge29" class="edge">
<title>1692603187952&#45;&gt;1692603188336</title>
<path fill="none" stroke="#95a5a6" stroke-width="1.5" d="M960.87,-710.15C981.08,-710.15 999.7,-710.15 999.7,-710.15 999.7,-710.15 999.7,-286.62 999.7,-286.62 999.7,-286.62 1654.49,-286.62 1654.49,-286.62"/>
<polygon fill="#95a5a6" stroke="#95a5a6" stroke-width="1.5" points="1654.49,-289.08 1661.49,-286.63 1654.49,-284.18 1654.49,-289.08"/>
</g>
<!-- 1692603188384 -->
<g id="node31" class="node">
<title>1692603188384</title>
<polygon fill="#27ae60" stroke="black" stroke-width="0" points="1889.78,-185.9 1663.73,-185.9 1663.73,-122 1889.78,-122 1889.78,-185.9"/>
<text text-anchor="middle" x="1776.75" y="-167.3" font-family="Microsoft YaHei" font-size="12.00" fill="white">申万指数分析&#45;月报表</text>
<text text-anchor="middle" x="1776.75" y="-150.8" font-family="Microsoft YaHei" font-size="12.00" fill="white">接口: index_analysis_monthly_sw</text>
<text text-anchor="middle" x="1776.75" y="-134.3" font-family="Microsoft YaHei" font-size="12.00" fill="white">描述: 申万宏源研究&#45;指数分析&#45;月报表</text>
</g>
<!-- 1692603187952&#45;&gt;1692603188384 -->
<g id="edge30" class="edge">
<title>1692603187952&#45;&gt;1692603188384</title>
<path fill="none" stroke="#95a5a6" stroke-width="1.5" d="M960.79,-695.75C972.03,-695.75 980.7,-695.75 980.7,-695.75 980.7,-695.75 980.7,-153.95 980.7,-153.95 980.7,-153.95 1654.69,-153.95 1654.69,-153.95"/>
<polygon fill="#95a5a6" stroke="#95a5a6" stroke-width="1.5" points="1654.69,-156.4 1661.69,-153.95 1654.69,-151.5 1654.69,-156.4"/>
</g>
<!-- 1692603188480 -->
<g id="node33" class="node">
<title>1692603188480</title>
<polygon fill="#27ae60" stroke="black" stroke-width="0" points="1889.4,-63.9 1664.1,-63.9 1664.1,0 1889.4,0 1889.4,-63.9"/>
<text text-anchor="middle" x="1776.75" y="-45.3" font-family="Microsoft YaHei" font-size="12.00" fill="white">A 股新闻情绪指数</text>
<text text-anchor="middle" x="1776.75" y="-28.8" font-family="Microsoft YaHei" font-size="12.00" fill="white">接口: index_news_sentiment_scope</text>
<text text-anchor="middle" x="1776.75" y="-12.3" font-family="Microsoft YaHei" font-size="12.00" fill="white">描述: 数库&#45;A股新闻情绪指数</text>
</g>
<!-- 1692603188432&#45;&gt;1692603188480 -->
<g id="edge32" class="edge">
<title>1692603188432&#45;&gt;1692603188480</title>
<path fill="none" stroke="#95a5a6" stroke-width="1.5" d="M910.7,-265.65C910.7,-204.36 910.7,-31.95 910.7,-31.95 910.7,-31.95 1655.15,-31.95 1655.15,-31.95"/>
<polygon fill="#95a5a6" stroke="#95a5a6" stroke-width="1.5" points="1655.15,-34.4 1662.15,-31.95 1655.15,-29.5 1655.15,-34.4"/>
</g>
</g>
</svg>
